# xmcd
#
# Track frame offsets:
#	150
#	11831
#	27828
#	38817
#	53291
#	65969
#	79773
#	94235
#	106849
#	123629
#	137497
#	149978
#	161075
#	173215
#	186748
#	197594
#	210753
#	221515
#
# Disc length: 3095 seconds
#
# Revision: 1
# Processed by: cddbd v1.5.2PL0 Copyright (c) Steve Scherf et al.
# Submitted via: audiograbber 1.82.02
#
DISCID=090c1512
DTITLE=Australian Bush BA Tribute Vol 1-5 - Tribute Series No 1
DYEAR=2001
DGENRE=Country
TTITLE0=Stan Coster - My People
TTITLE1=Geoff Brown - A Thousand Miles From Anywhere
TTITLE2=Jim Kiley - Files
TTITLE3=Rocky Page - When The Murray River Floods...
TTITLE4=Trevor Coad - Lonely House
TTITLE5=Athol McCoy - Tassie
TTITLE6=Gordon Parsons - Joe The Crow
TTITLE7=Kevin Shegog - Little Kangaroo
TTITLE8=Stan Coster - Old Gilbert
TTITLE9=Don Gresham - Iddy Biddy Puddy Tat
TTITLE10=Rocky Page - A Hundred Thousand Acres
TTITLE11=Athol McCoy - The Inn At Inverary
TTITLE12=Jim Kiley - Mates
TTITLE13=Don Gresham - Mt Warning
TTITLE14=Trevor Coad - Breathhalizer Blues
TTITLE15=Kevin Shegog - Cops And Robbers
TTITLE16=Geoff Brown - A Lotta Little Things
TTITLE17=Gordon Parsons - There Is No Indispensable Man
EXTD=
EXTT0=
EXTT1=
EXTT2=
EXTT3=
EXTT4=
EXTT5=
EXTT6=
EXTT7=
EXTT8=
EXTT9=
EXTT10=
EXTT11=
EXTT12=
EXTT13=
EXTT14=
EXTT15=
EXTT16=
EXTT17=
PLAYORDER=
